<?xml version="1.0" standalone="no"?>
<svg xmlns:xlink="http://www.w3.org/1999/xlink" id="wave" style="transform:rotate(180deg); transition: 0.3s" viewBox="0 0 1440 320" version="1.1" xmlns="http://www.w3.org/2000/svg"><defs><linearGradient id="sw-gradient-0" x1="0" x2="0" y1="1" y2="0"><stop stop-color="rgba(62, 80, 60, 1)" offset="0%"/><stop stop-color="rgba(148, 156, 129, 1)" offset="100%"/></linearGradient></defs><path style="transform:translate(0, 0px); opacity:1" fill="url(#sw-gradient-0)" d="M0,96L80,85.3C160,75,320,53,480,69.3C640,85,800,139,960,133.3C1120,128,1280,64,1440,42.7C1600,21,1760,43,1920,58.7C2080,75,2240,85,2400,96C2560,107,2720,117,2880,144C3040,171,3200,213,3360,234.7C3520,256,3680,256,3840,250.7C4000,245,4160,235,4320,192C4480,149,4640,75,4800,80C4960,85,5120,171,5280,170.7C5440,171,5600,85,5760,42.7C5920,0,6080,0,6240,32C6400,64,6560,128,6720,170.7C6880,213,7040,235,7200,208C7360,181,7520,107,7680,64C7840,21,8000,11,8160,32C8320,53,8480,107,8640,154.7C8800,203,8960,245,9120,245.3C9280,245,9440,203,9600,154.7C9760,107,9920,53,10080,74.7C10240,96,10400,192,10560,213.3C10720,235,10880,181,11040,149.3C11200,117,11360,107,11440,101.3L11520,96L11520,320L11440,320C11360,320,11200,320,11040,320C10880,320,10720,320,10560,320C10400,320,10240,320,10080,320C9920,320,9760,320,9600,320C9440,320,9280,320,9120,320C8960,320,8800,320,8640,320C8480,320,8320,320,8160,320C8000,320,7840,320,7680,320C7520,320,7360,320,7200,320C7040,320,6880,320,6720,320C6560,320,6400,320,6240,320C6080,320,5920,320,5760,320C5600,320,5440,320,5280,320C5120,320,4960,320,4800,320C4640,320,4480,320,4320,320C4160,320,4000,320,3840,320C3680,320,3520,320,3360,320C3200,320,3040,320,2880,320C2720,320,2560,320,2400,320C2240,320,2080,320,1920,320C1760,320,1600,320,1440,320C1280,320,1120,320,960,320C800,320,640,320,480,320C320,320,160,320,80,320L0,320Z"/><defs><linearGradient id="sw-gradient-1" x1="0" x2="0" y1="1" y2="0"><stop stop-color="rgba(62, 80, 60, 1)" offset="0%"/><stop stop-color="rgba(148, 156, 129, 1)" offset="100%"/></linearGradient></defs><path style="transform:translate(0, 50px); opacity:0.9" fill="url(#sw-gradient-1)" d="M0,288L80,261.3C160,235,320,181,480,160C640,139,800,149,960,144C1120,139,1280,117,1440,106.7C1600,96,1760,96,1920,106.7C2080,117,2240,139,2400,170.7C2560,203,2720,245,2880,245.3C3040,245,3200,203,3360,202.7C3520,203,3680,245,3840,224C4000,203,4160,117,4320,90.7C4480,64,4640,96,4800,90.7C4960,85,5120,43,5280,21.3C5440,0,5600,0,5760,37.3C5920,75,6080,149,6240,176C6400,203,6560,181,6720,154.7C6880,128,7040,96,7200,106.7C7360,117,7520,171,7680,186.7C7840,203,8000,181,8160,165.3C8320,149,8480,139,8640,149.3C8800,160,8960,192,9120,218.7C9280,245,9440,267,9600,256C9760,245,9920,203,10080,165.3C10240,128,10400,96,10560,112C10720,128,10880,192,11040,224C11200,256,11360,256,11440,256L11520,256L11520,320L11440,320C11360,320,11200,320,11040,320C10880,320,10720,320,10560,320C10400,320,10240,320,10080,320C9920,320,9760,320,9600,320C9440,320,9280,320,9120,320C8960,320,8800,320,8640,320C8480,320,8320,320,8160,320C8000,320,7840,320,7680,320C7520,320,7360,320,7200,320C7040,320,6880,320,6720,320C6560,320,6400,320,6240,320C6080,320,5920,320,5760,320C5600,320,5440,320,5280,320C5120,320,4960,320,4800,320C4640,320,4480,320,4320,320C4160,320,4000,320,3840,320C3680,320,3520,320,3360,320C3200,320,3040,320,2880,320C2720,320,2560,320,2400,320C2240,320,2080,320,1920,320C1760,320,1600,320,1440,320C1280,320,1120,320,960,320C800,320,640,320,480,320C320,320,160,320,80,320L0,320Z"/></svg>